#!OML:ASF X:\für Bonn\!DataBase\2005_08_11_Bastian_Final\c3d\Bastian.ASF
:FULLY-SPECIFIED
:DEGREES
620
root 0.566037 1.16726 20.4324 -636.191 -0.513374 -179
lowerback 5.71674 -1.2751 4.01526
upperback 6.5156 -2.12189 1.89102
thorax 3.48498 -1.17607 -0.250855
lowerneck -21.2615 -3.64738 -5.11993
upperneck 2.17161 -4.32328 5.37889
head 4.21186 -1.99804 2.08283
rclavicle 2.18663e-014 -2.5842e-014
rhumerus -60.3368 51.0907 -113.791
rradius 25.5184
rwrist -10.6482
rhand -11.929 -1.54184
rfingers 7.12502
rthumb 14.1254 -31.0417
lclavicle 2.18663e-014 -2.5842e-014
lhumerus -40.3295 -38.1977 103.965
lradius 16.3551
lwrist 22.121
lhand -9.48082 -2.88669
lfingers 7.12502
lthumb 16.4836 26.4331
rfemur -3.81536 6.79364 22.5126
rtibia 31.4169
rfoot -13.7176 -25.3274
rtoes 0.115538
lfemur 0.176813 3.27637 -15.3003
ltibia 21.7627
lfoot -2.17561 9.54091
ltoes -4.71381
621
root 0.566199 1.16712 20.4333 -636.145 -0.514788 -178.991
lowerback 5.69527 -1.2795 4.01428
upperback 6.47936 -2.12353 1.89087
thorax 3.45866 -1.17561 -0.250362
lowerneck -21.2733 -3.64084 -5.13116
upperneck 2.19076 -4.30891 5.36181
head 4.21856 -1.99143 2.08046
rclavicle -2.78299e-015 -6.4605e-015
rhumerus -60.406 51.0763 -113.846
rradius 25.5155
rwrist -10.62
rhand -11.9517 -1.53325
rfingers 7.12502
rthumb 14.1035 -31.0346
lclavicle -2.78299e-015 -6.4605e-015
lhumerus -40.4051 -38.1481 103.97
lradius 16.4226
lwrist 22.0775
lhand -9.46935 -2.86431
lfingers 7.12502
lthumb 16.4946 26.4545
rfemur -3.8669 6.79062 22.5049
rtibia 31.4129
rfoot -13.6944 -25.3194
rtoes 0.197181
lfemur 0.118315 3.28216 -15.3036
ltibia 21.7687
lfoot -2.17519 9.52962
ltoes -4.75549
622
root 0.566124 1.16649 20.4343 -636.085 -0.494863 -178.982
lowerback 5.6358 -1.28116 4.03985
upperback 6.47276 -2.12697 1.89566
thorax 3.48433 -1.17529 -0.261248
lowerneck -21.3262 -3.62701 -5.12585
upperneck 2.19526 -4.28944 5.34754
head 4.22618 -1.98242 2.07651
rclavicle -1.66979e-014 2.3059e-014
rhumerus -60.4527 51.1269 -113.899
rradius 25.5545
rwrist -10.686
rhand -11.9579 -1.55819
rfingers 7.12502
rthumb 14.0976 -31.06
lclavicle -1.66979e-014 2.3059e-014
lhumerus -40.381 -38.1648 103.96
lradius 16.4196
lwrist 22.0862
lhand -9.46929 -2.86438
lfingers 7.12502
lthumb 16.4947 26.4545
rfemur -3.93135 6.80735 22.5166
rtibia 31.4117
rfoot -13.7369 -25.2876
rtoes 0.449842
lfemur 0.0454513 3.28945 -15.2846
ltibia 21.7744
lfoot -2.15742 9.50564
ltoes -4.73364
623
root 0.566254 1.16593 20.4352 -636.038 -0.494802 -178.983
lowerback 5.59311 -1.2851 4.01376
upperback 6.46087 -2.13423 1.9136
thorax 3.49675 -1.17967 -0.229127
lowerneck -21.3588 -3.62443 -5.15506
upperneck 2.2026 -4.27604 5.3364
head 4.23274 -1.9764 2.07861
rclavicle 2.0276e-014 -2.25621e-014
rhumerus -60.4986 51.1749 -113.919
rradius 25.574
rwrist -10.7071
rhand -11.9582 -1.56344
rfingers 7.12502
rthumb 14.0972 -31.0653
lclavicle 2.0276e-014 -2.25621e-014
lhumerus -40.3569 -38.0823 103.934
lradius 16.4287
lwrist 22.0294
lhand -9.46946 -2.86516
lfingers 7.12502
lthumb 16.4945 26.4537
rfemur -3.98805 6.81907 22.5127
rtibia 31.4118
rfoot -13.6958 -25.2655
rtoes 0.382779
lfemur -0.0130065 3.28839 -15.2879
ltibia 21.7788
lfoot -2.1548 9.51373
ltoes -4.73052
624
root 0.566213 1.16584 20.4357 -636.002 -0.496536 -178.982
lowerback 5.5691 -1.27975 4.02285
upperback 6.43932 -2.12358 1.90173
thorax 3.487 -1.17229 -0.247012
lowerneck -21.3408 -3.61508 -5.12582
upperneck 2.17599 -4.26933 5.30762
head 4.22 -1.97522 2.0659
rclavicle 9.14409e-015 -2.01766e-014
rhumerus -60.433 51.0776 -113.852
rradius 25.5452
rwrist -10.6253
rhand -11.9627 -1.54245
rfingers 7.12502
rthumb 14.093 -31.0446
lclavicle 9.14409e-015 -2.01766e-014
lhumerus -40.4523 -38.1656 104.004
lradius 16.4549
lwrist 22.0769
lhand -9.50119 -2.87112
lfingers 7.12502
lthumb 16.4639 26.4503
rfemur -4.0279 6.81699 22.5051
rtibia 31.4095
rfoot -13.6872 -25.2478
rtoes 0.417861
lfemur -0.0580344 3.28942 -15.2926
ltibia 21.7887
lfoot -2.15167 9.49955
ltoes -4.70204
625
root 0.565916 1.16555 20.4366 -635.955 -0.502479 -178.991
lowerback 5.53329 -1.27701 4.02242
upperback 6.42406 -2.11888 1.89985
thorax 3.49095 -1.16873 -0.249632
lowerneck -21.4066 -3.60957 -5.14145
upperneck 2.22976 -4.25507 5.30484
head 4.24601 -1.967 2.06798
rclavicle 1.74931e-014 2.18663e-015
rhumerus -60.4663 51.0925 -113.886
rradius 25.5469
rwrist -10.6156
rhand -11.9855 -1.53839
rfingers 7.12502
rthumb 14.071 -31.042
lclavicle 1.74931e-014 2.18663e-015
lhumerus -40.4374 -38.1306 103.986
lradius 16.45
lwrist 22.0406
lhand -9.50125 -2.87162
lfingers 7.12502
lthumb 16.4639 26.4498
rfemur -4.08615 6.77873 22.481
rtibia 31.4107
rfoot -13.6522 -25.1727
rtoes 0.573389
lfemur -0.111077 3.29025 -15.3056
ltibia 21.793
lfoot -2.15213 9.49744
ltoes -4.62668
626
root 0.565973 1.16499 20.4376 -635.894 -0.47875 -178.994
lowerback 5.47484 -1.2818 4.0398
upperback 6.41547 -2.1268 1.90699
thorax 3.51413 -1.17114 -0.253349
lowerneck -21.4599 -3.60016 -5.15192
upperneck 2.24572 -4.23878 5.30747
head 4.25823 -1.95845 2.07148
rclavicle -1.15295e-014 -3.33958e-014
rhumerus -60.4901 51.1381 -113.928
rradius 25.5636
rwrist -10.6375
rhand -11.9935 -1.56956
rfingers 7.12502
rthumb 14.0632 -31.0737
lclavicle -1.15295e-014 -3.33958e-014
lhumerus -40.4109 -38.0812 103.939
lradius 16.4608
lwrist 22.0017
lhand -9.47659 -2.85104
lfingers 7.12502
lthumb 16.4876 26.4684
rfemur -4.15502 6.82311 22.5141
rtibia 31.4107
rfoot -13.6637 -25.1973
rtoes 0.635407
lfemur -0.184543 3.2917 -15.2827
ltibia 21.7986
lfoot -2.14722 9.50382
ltoes -4.64888
627
root 0.565777 1.16485 20.4385 -635.846 -0.483537 -178.992
lowerback 5.43777 -1.28269 4.03838
upperback 6.39279 -2.12619 1.90644
thorax 3.51091 -1.16957 -0.253834
lowerneck -21.4903 -3.60086 -5.16546
upperneck 2.28555 -4.23314 5.29505
head 4.27479 -1.95542 2.06977
rclavicle -7.55382e-015 -4.96962e-015
rhumerus -60.5116 51.1258 -113.934
rradius 25.5677
rwrist -10.628
rhand -11.9935 -1.56684
rfingers 7.12502
rthumb 14.0633 -31.071
lclavicle -7.55382e-015 -4.96962e-015
lhumerus -40.4764 -38.1103 103.991
lradius 16.4976
lwrist 22.0487
lhand -9.49293 -2.83386
lfingers 7.12502
lthumb 16.4719 26.4869
rfemur -4.21075 6.7928 22.4946
rtibia 31.4108
rfoot -13.641 -25.138
rtoes 0.712255
lfemur -0.239209 3.29368 -15.2929
ltibia 21.8006
lfoot -2.14324 9.48557
ltoes -4.57984
628
root 0.565272 1.16469 20.4394 -635.8 -0.485079 -178.983
lowerback 5.40185 -1.28578 4.04487
upperback 6.3707 -2.12847 1.90563
thorax 3.50739 -1.16921 -0.258895
lowerneck -21.4852 -3.59913 -5.18046
upperneck 2.27549 -4.22619 5.28782
head 4.27058 -1.95277 2.07068
rclavicle 4.77083e-015 2.89232e-014
rhumerus -60.5986 51.1539 -114.01
rradius 25.604
rwrist -10.6786
rhand -11.9995 -1.58813
rfingers 7.12502
rthumb 14.0575 -31.0927
lclavicle 4.77083e-015 2.89232e-014
lhumerus -40.4923 -38.0663 103.98
lradius 16.5099
lwrist 22.0036
lhand -9.49307 -2.83467
lfingers 7.12502
lthumb 16.4718 26.4861
rfemur -4.26352 6.77737 22.4814
rtibia 31.4075
rfoot -13.6311 -25.091
rtoes 0.772092
lfemur -0.298053 3.28311 -15.3022
ltibia 21.809
lfoot -2.14422 9.49301
ltoes -4.61936
629
root 0.565454 1.16421 20.4407 -635.74 -0.485727 -178.983
lowerback 5.34241 -1.29112 4.0339
upperback 6.36281 -2.13738 1.90748
thorax 3.53231 -1.17292 -0.252335
lowerneck -21.5389 -3.58317 -5.17221
upperneck 2.31402 -4.20341 5.26905
head 4.28868 -1.94157 2.06502
rclavicle 3.29983e-014 -2.34566e-014
rhumerus -60.6051 51.1816 -114.013
rradius 25.6186
rwrist -10.6794
rhand -11.9995 -1.58582
rfingers 7.12502
rthumb 14.0575 -31.0904
lclavicle 3.29983e-014 -2.34566e-014
lhumerus -40.471 -38.0177 103.934
lradius 16.5175
lwrist 21.9127
lhand -9.5011 -2.84281
lfingers 7.12502
lthumb 16.464 26.4786
rfemur -4.33743 6.79673 22.4761
rtibia 31.4042
rfoot -13.6058 -25.0844
rtoes 0.797771
lfemur -0.37215 3.28336 -15.3068
ltibia 21.8181
lfoot -2.13781 9.48417
ltoes -4.54597
630
root 0.56554 1.16374 20.4417 -635.682 -0.463276 -178.977
lowerback 5.28644 -1.29245 4.06066
upperback 6.35194 -2.13978 1.91227
thorax 3.55157 -1.17202 -0.263727
lowerneck -21.5808 -3.5808 -5.16878
upperneck 2.32321 -4.19805 5.24875
head 4.29673 -1.93982 2.05814
rclavicle 7.55382e-015 1.68967e-014
rhumerus -60.6168 51.1985 -114.033
rradius 25.6195
rwrist -10.6724
rhand -12.0223 -1.58229
rfingers 7.12502
rthumb 14.0355 -31.0884
lclavicle 7.55382e-015 1.68967e-014
lhumerus -40.517 -38.0862 103.987
lradius 16.5542
lwrist 21.9721
lhand -9.5336 -2.80732
lfingers 7.12502
lthumb 16.4327 26.5167
rfemur -4.4026 6.78455 22.4917
rtibia 31.4008
rfoot -13.5775 -25.0694
rtoes 0.916807
lfemur -0.446492 3.29052 -15.2838
ltibia 21.8301
lfoot -2.15426 9.46496
ltoes -4.69502
